<svg width="20" height="20" viewBox="0 0 20 20" fill="none" xmlns="http://www.w3.org/2000/svg">
<path d="M9.55834 5H13.725M9.55834 15H12.8917M9.55834 11.625L13.725 11.6667M9.55834 8.33333H12.0583M7.03334 5.83333H2.10834M17.8917 15.8333V4.16666C17.8917 2.5 17.0583 1.66666 15.3917 1.66666H12.0583C10.3917 1.66666 9.55834 2.5 9.55834 4.16666V15.8333C9.55834 17.5 10.3917 18.3333 12.0583 18.3333H15.3917C17.0583 18.3333 17.8917 17.5 17.8917 15.8333ZM4.575 1.66666C3.21667 1.66666 2.10834 2.775 2.10834 4.125V14.925C2.10834 15.3 2.26667 15.8667 2.45834 16.1917L3.14167 17.325C3.925 18.6333 5.21667 18.6333 6 17.325L6.68334 16.1917C6.875 15.8667 7.03334 15.3 7.03334 14.925V4.125C7.03334 2.775 5.925 1.66666 4.575 1.66666Z" stroke="white" stroke-linecap="round"/>
</svg>
