<svg width="20" height="20" viewBox="0 0 20 20" fill="none" xmlns="http://www.w3.org/2000/svg">
<path d="M14.1667 11.1667V13.6667C14.1667 17 12.8334 18.3333 9.50002 18.3333H6.33335C3.00002 18.3333 1.66669 17 1.66669 13.6667V10.5C1.66669 7.16668 3.00002 5.83334 6.33335 5.83334H8.83335" stroke="white" stroke-linecap="round" stroke-linejoin="round"/>
<path d="M9.66665 1.66666H13M5.83331 4.16666C5.83331 2.78332 6.94998 1.66666 8.33331 1.66666H10.5166M18.3333 6.66666V11.825C18.3333 13.1167 17.2833 14.1667 15.9916 14.1667M18.3333 6.66666H15.8333C13.9583 6.66666 13.3333 6.04166 13.3333 4.16666V1.66666L18.3333 6.66666ZM14.1666 11.1667H11.5C9.49998 11.1667 8.83331 10.5 8.83331 8.49999V5.83332L14.1666 11.1667Z" stroke="white" stroke-linecap="round" stroke-linejoin="round"/>
</svg>
